<svg width="70" height="46" viewBox="0 0 70 46" fill="none" xmlns="http://www.w3.org/2000/svg">
<rect x="1" y="1" width="68" height="44" stroke="#6DA6FD" stroke-width="2"/>
<path d="M31.984 30.45V35H13.014V10.5H31.529V15.05H18.649V20.37H30.024V24.78H18.649V30.45H31.984ZM48.8521 35.42C46.3554 35.42 44.0921 34.8833 42.0621 33.81C40.0554 32.7133 38.4687 31.2083 37.3021 29.295C36.1587 27.3583 35.5871 25.1767 35.5871 22.75C35.5871 20.3233 36.1587 18.1533 37.3021 16.24C38.4687 14.3033 40.0554 12.7983 42.0621 11.725C44.0921 10.6283 46.3671 10.08 48.8871 10.08C51.0104 10.08 52.9237 10.4533 54.6271 11.2C56.3537 11.9467 57.8004 13.02 58.9671 14.42L55.3271 17.78C53.6704 15.8667 51.6171 14.91 49.1671 14.91C47.6504 14.91 46.2971 15.2483 45.1071 15.925C43.9171 16.5783 42.9837 17.5 42.3071 18.69C41.6537 19.88 41.3271 21.2333 41.3271 22.75C41.3271 24.2667 41.6537 25.62 42.3071 26.81C42.9837 28 43.9171 28.9333 45.1071 29.61C46.2971 30.2633 47.6504 30.59 49.1671 30.59C51.6171 30.59 53.6704 29.6217 55.3271 27.685L58.9671 31.045C57.8004 32.4683 56.3537 33.5533 54.6271 34.3C52.9004 35.0467 50.9754 35.42 48.8521 35.42Z" fill="#6DA6FD"/>
</svg>
