<svg width="50" height="50" viewBox="0 0 50 50" fill="none" xmlns="http://www.w3.org/2000/svg">
<path d="M25 0C11.195 0 0 11.195 0 25C0 38.805 11.195 50 25 50C38.805 50 50 38.805 50 25C50 11.195 38.805 0 25 0ZM37.542 19.1282V22.5133C35.9458 22.5139 34.3949 22.2011 32.9322 21.584C31.9917 21.1869 31.1154 20.6753 30.314 20.057L30.338 30.4763C30.3279 32.8225 29.3997 35.0269 27.7197 36.6873C26.3525 38.0389 24.6201 38.8983 22.7424 39.1766C22.3012 39.2419 21.8521 39.2754 21.398 39.2754C19.388 39.2754 17.4797 38.6242 15.9187 37.4229C15.6249 37.1967 15.3439 36.9515 15.0765 36.6873C13.2558 34.8878 12.3169 32.4489 12.475 29.8832C12.5956 27.9302 13.3775 26.0676 14.6811 24.6077C16.4057 22.6759 18.8184 21.6036 21.398 21.6036C21.8521 21.6036 22.3012 21.6377 22.7424 21.703V22.9546V26.4362C22.324 26.2982 21.8772 26.2224 21.412 26.2224C19.0552 26.2224 17.1484 28.1452 17.1837 30.5038C17.2061 32.0129 18.0304 33.332 19.2462 34.0592C19.8176 34.401 20.4749 34.6127 21.1764 34.6512C21.726 34.6813 22.2537 34.6048 22.7424 34.4435C24.4263 33.8872 25.641 32.3056 25.641 30.4401L25.6466 23.4629V10.7246H30.3083C30.3128 11.1865 30.3597 11.6372 30.4468 12.0739C30.7986 13.8416 31.795 15.3752 33.1817 16.4207C34.3909 17.3327 35.8966 17.8733 37.5285 17.8733C37.5296 17.8733 37.5431 17.8733 37.5419 17.8723V19.1282H37.542Z" fill="black"/>
</svg>
